HIERARCHY
ROOT Bip001_Pelvis
{
  OFFSET 7.937 94.8971 -8.5489
  CHANNELS 6 Xposition Yposition Zposition Zrotation Xrotation Yrotation
  JOINT Bip001_Spine
  {
    OFFSET 1.44608e-005 10.4157 -0.0118244
    CHANNELS 3 Zrotation Xrotation Yrotation
    JOINT Bip001_L_Thigh
    {
      OFFSET 11.2582 -10.4157 0.0118432
      CHANNELS 3 Zrotation Xrotation Yrotation
      JOINT Bip001_L_Calf
      {
        OFFSET -0.720717 -44.8687 0.366937
        CHANNELS 3 Zrotation Xrotation Yrotation
        JOINT Bip001_L_Foot
        {
          OFFSET -0.664439 -41.3745 -3.62995
          CHANNELS 3 Zrotation Xrotation Yrotation
          JOINT Bip001_L_Toe0
          {
            OFFSET 0.0541047 -10.4146 13.4033
            CHANNELS 3 Zrotation Xrotation Yrotation
            End Site
            {
              OFFSET -1.04503e-005 0 7.70137
            }
          }
        }
      }
    }
    JOINT Bip001_R_Thigh
    {
      OFFSET -11.2582 -10.4156 0.0118122
      CHANNELS 3 Zrotation Xrotation Yrotation
      JOINT Bip001_R_Calf
      {
        OFFSET 0.72059 -44.8687 0.36676
        CHANNELS 3 Zrotation Xrotation Yrotation
        JOINT Bip001_R_Foot
        {
          OFFSET 0.664321 -41.3745 -3.62979
          CHANNELS 3 Zrotation Xrotation Yrotation
          JOINT Bip001_R_Toe0
          {
            OFFSET -0.05417 -10.4146 13.4033
            CHANNELS 3 Zrotation Xrotation Yrotation
            End Site
            {
              OFFSET -1.04873e-005 0 7.70137
            }
          }
        }
      }
    }
    JOINT Bip001_Spine1
    {
      OFFSET 1.90638e-005 14.8539 1.10727
      CHANNELS 3 Zrotation Xrotation Yrotation
      JOINT Bip001_Spine2
      {
        OFFSET 2.28934e-005 14.7848 -1.7233
        CHANNELS 3 Zrotation Xrotation Yrotation
        JOINT Bip001_Neck
        {
          OFFSET 2.24514e-005 15.6905 -0.498826
          CHANNELS 3 Zrotation Xrotation Yrotation
          JOINT Bip001_L_Clavicle
          {
            OFFSET 6.17691 -0.000591152 0.00852867
            CHANNELS 3 Zrotation Xrotation Yrotation
            JOINT Bip001_L_UpperArm
            {
              OFFSET 11.773 -0.0611878 0.00197697
              CHANNELS 3 Zrotation Xrotation Yrotation
              JOINT Bip001_L_Forearm
              {
                OFFSET 26.4515 0.0817568 -2.19579
                CHANNELS 3 Zrotation Xrotation Yrotation
                JOINT Bip001_L_Hand
                {
                  OFFSET 32.8677 0.156744 1.67112
                  CHANNELS 3 Zrotation Xrotation Yrotation
                  JOINT Bip001_L_Finger0
                  {
                    OFFSET 6.16268 -2.25226 6.01674
                    CHANNELS 3 Zrotation Xrotation Yrotation
                    End Site
                    {
                      OFFSET 4.30499 -1.46662 0.618148
                    }
                  }
                  JOINT Bip001_L_Finger1
                  {
                    OFFSET 11.2957 -0.718374 -0.201963
                    CHANNELS 3 Zrotation Xrotation Yrotation
                    End Site
                    {
                      OFFSET 6.31952 -0.405163 -0.0802303
                    }
                  }
                }
              }
            }
          }
          JOINT Bip001_R_Clavicle
          {
            OFFSET -6.17691 -0.000574027 0.00851165
            CHANNELS 3 Zrotation Xrotation Yrotation
            JOINT Bip001_R_UpperArm
            {
              OFFSET -11.773 -0.0611516 0.00194365
              CHANNELS 3 Zrotation Xrotation Yrotation
              JOINT Bip001_R_Forearm
              {
                OFFSET -26.4514 0.0822334 -2.19736
                CHANNELS 3 Zrotation Xrotation Yrotation
                JOINT Bip001_R_Hand
                {
                  OFFSET -32.8677 0.156817 1.67144
                  CHANNELS 3 Zrotation Xrotation Yrotation
                  JOINT Bip001_R_Finger0
                  {
                    OFFSET -6.1627 -2.25224 6.0167
                    CHANNELS 3 Zrotation Xrotation Yrotation
                    End Site
                    {
                      OFFSET -4.30499 -1.46662 0.618134
                    }
                  }
                  JOINT Bip001_R_Finger1
                  {
                    OFFSET -11.2958 -0.718344 -0.201994
                    CHANNELS 3 Zrotation Xrotation Yrotation
                    End Site
                    {
                      OFFSET -6.31952 -0.405146 -0.0802475
                    }
                  }
                }
              }
            }
          }
          JOINT Bip001_Head
          {
            OFFSET 1.11782e-005 11.4912 2.09908
            CHANNELS 3 Zrotation Xrotation Yrotation
            End Site
            {
              OFFSET 2.95144e-005 21.2823 -2.83069e-005
            }
          }
        }
      }
    }
  }
}
MOTION
Frames:	10
Frame Time:	0.04
10.1164 95.0894 -9.21229 0.303641 -3.26989 -1.65783 -0.109412 1.24907 -0.717747 4.19413 -7.20647 10.6285 -1.53529 17.6959 -0.375201 -1.24169 -7.53165 1.87199 0.677208 -9.87162 -0.309755 -9.14914 -6.44428 1.00497 -1.0117 16.632 5.68717 2.01848 -7.86784 -9.8266 -0.052271 -11.6563 -0.129589 -0.229947 2.52103 -1.43456 -0.229946 2.52102 -1.43456 -3.21388 0.654801 -2.6314 -26.6807 3.45303 -8.3997 -49.8667 40.042 4.98749 13.6974 -0.0330056 -28.5455 -1.60786 -0.226438 -2.1136 1.76556e-031 -6.36111e-015 1.59028e-015 -3.18055e-015 -3.18056e-015 -1.59028e-015 33.1295 6.39264 13.7579 56.711 22.4102 -18.956 22.3485 -38.1418 58.8943 -6.76252 1.3958 -18.1766 -1.59028e-015 3.18055e-015 -1.59028e-015 -1.19271e-015 3.18056e-015 1.59028e-015 0.447563 4.88204 -3.64227 
10.2321 95.066 -8.99286 0.311312 -3.2788 -2.3178 -0.0930192 1.27317 -0.885245 4.03459 -6.98555 10.7255 -1.4586 17.7244 -0.0802971 -1.29664 -7.83412 2.19264 0.691885 -9.84422 -0.224766 -9.23207 -6.59665 1.55692 -0.982552 16.7486 5.64435 2.05537 -7.95046 -9.55932 -0.0118396 -11.6811 -0.0790266 -0.192331 2.54781 -1.77014 -0.192332 2.54782 -1.77014 -3.03303 0.564182 -2.54497 -26.6722 3.56561 -8.49146 -50.9002 40.0738 6.17719 14.0871 0.281864 -28.5584 -1.63612 -0.245587 -2.08318 -8.82781e-032 3.18055e-015 1.59028e-015 0 3.18056e-015 -0 33.4146 6.1994 12.8221 54.6411 13.829 -20.202 16.3787 -28.3151 61.657 -9.79679 1.40687 -15.0952 2.38542e-015 0 -0 3.97569e-015 0 -0 0.122574 4.82817 -3.41599 
10.2952 95.022 -8.6993 0.230548 -3.38265 -3.01909 -0.0580347 1.29466 -1.03507 4.04888 -6.67173 10.8752 -1.52454 17.9128 -0.0541386 -1.2697 -8.29769 2.69272 0.719647 -9.79287 -0.0627137 -9.20656 -6.63685 0.503476 -1.53322 16.9115 6.3681 2.30396 -8.0901 -8.39376 0.00202928 -11.7251 0.0616907 -0.123653 2.60306 -2.07094 -0.123653 2.60306 -2.07095 -2.80947 0.783114 -2.30448 -26.6008 3.44668 -8.81885 -51.7946 40.1951 7.1519 13.9793 0.456517 -28.1533 -1.86747 -0.252161 -2.03755 -0 0 1.59028e-015 -3.18055e-015 -3.18056e-015 -7.95139e-016 33.2348 5.60643 12.0111 52.6443 6.34752 -21.5201 9.01488 -18.799 65.3521 -14.2675 1.64221 -11.8584 -3.18055e-015 3.18055e-015 -0 -4.77083e-015 3.18056e-015 3.18055e-015 -0.0989212 4.56952 -3.06488 
10.3439 94.9862 -8.41963 0.162266 -3.41206 -3.60203 -0.0162786 1.29455 -1.17357 4.05497 -6.40599 10.7172 -1.7253 18.0311 0.000309745 -1.2097 -8.71508 3.39974 0.808129 -9.75725 0.0695379 -9.21714 -6.68958 0.376539 -1.70342 17.0576 6.625 2.34743 -8.22474 -7.82924 0.0563643 -11.7614 0.125408 -0.0343259 2.60815 -2.34893 -0.0343255 2.60815 -2.34893 -2.56939 0.908559 -2.21598 -26.6831 3.32608 -8.88811 -52.4729 40.5544 7.89796 13.7754 0.65452 -27.3493 -2.36042 -0.34066 -1.9657 -3.18055e-015 -3.18055e-015 -0 -0 -6.36111e-015 -0 32.5668 5.23238 11.648 49.8788 -1.98566 -22.3911 2.65517 -9.82857 70.2379 -16.0954 1.64 -8.71755 1.05934e-030 6.36111e-015 -9.54166e-015 7.95139e-015 9.54167e-015 -6.36111e-015 -0.347079 4.57267 -2.84537 
10.3799 94.9365 -8.10291 0.168207 -3.45931 -4.0594 0.00814367 1.29427 -1.28107 3.98142 -6.14143 10.8065 -1.74441 18.1935 -0.0851834 -1.19075 -9.11315 3.85572 0.826851 -9.73707 0.157973 -9.2198 -6.74278 0.580402 -1.83745 17.3867 6.70226 2.31194 -8.48 -7.56114 0.16926 -11.8093 0.178472 0.025398 2.59051 -2.56417 0.0253984 2.59052 -2.56416 -2.33493 1.14147 -2.23583 -26.7809 3.06282 -8.9056 -53.1626 40.8821 8.68624 13.7936 1.0661 -26.4613 -2.93968 -0.425217 -1.77552 -3.18055e-015 -3.18055e-015 -7.95139e-016 -0 0 1.59028e-015 32.3165 5.01892 11.7428 45.6955 -10.1358 -23.6767 -3.69812 -1.58529 76.5722 -19.1897 1.01267 -5.9739 -1.59028e-015 -3.18055e-015 -6.36111e-015 1.59028e-015 -3.18056e-015 -6.36111e-015 -0.591909 4.54773 -2.73646 
10.3897 94.8617 -7.79294 0.18679 -3.48027 -4.2624 0.0207941 1.29366 -1.34484 3.96706 -6.0328 10.7737 -1.8163 18.5289 -0.262675 -1.14543 -9.54223 4.19089 0.850941 -9.72924 0.301525 -9.19226 -6.82179 0.71752 -1.97276 17.8728 7.03549 2.11957 -8.85785 -7.71822 0.342169 -11.8512 0.153398 0.0704751 2.58649 -2.69134 0.070475 2.5865 -2.69134 -2.23168 1.15401 -2.34172 -26.7268 3.00067 -8.8433 -53.9668 41.3601 9.59336 14.0168 0.974113 -25.7767 -3.62538 -0.464528 -1.4436 -4.41391e-032 -3.18055e-015 -7.95139e-016 0 0 -7.95139e-016 32.378 5.07033 11.7528 40.9193 -16.7039 -24.6073 -8.30725 4.16361 83.6557 -22.0681 1.24115 -3.65355 3.18055e-015 0 6.36111e-015 3.18055e-015 -3.18056e-015 6.36111e-015 -0.584793 4.68562 -2.80931 
10.3643 94.7965 -7.54379 0.354216 -3.35275 -3.97661 0.0184547 1.25584 -1.405 3.82885 -6.06163 10.6072 -1.84163 18.6336 -0.900181 -1.03768 -9.78216 4.60534 0.881067 -9.68232 0.483411 -9.39469 -6.96983 0.410521 -1.95298 18.4656 6.80137 2.05328 -9.31299 -7.47173 0.404392 -11.8887 0.22946 0.0689751 2.51086 -2.81143 0.0689756 2.51085 -2.81143 -2.06924 1.22925 -2.58661 -26.7527 2.8126 -8.7093 -54.4307 41.157 10.1337 13.9852 1.28154 -25.2359 -3.73325 -0.399404 -1.07254 1.59028e-015 0 -1.59028e-015 1.59028e-015 0 -7.95139e-016 32.3576 5.13833 11.982 37.6841 -18.8873 -23.9877 -13.9345 4.72502 89.1206 -25.3897 1.72051 -1.28634 3.18055e-015 -3.18055e-015 -3.18055e-015 3.18055e-015 6.36111e-015 -6.36111e-015 -0.599047 4.73463 -2.99651 
10.2525 94.6928 -7.45465 0.487313 -2.98043 -3.06644 0.042481 1.16078 -1.4542 3.80041 -6.66343 10.5823 -1.6733 19.1432 -2.0439 -0.994436 -10.041 4.74278 0.909165 -9.63152 0.65474 -9.47141 -7.30781 -0.667352 -2.23792 19.2619 6.41695 2.10108 -9.87456 -6.90214 0.482477 -11.9265 0.304773 0.121747 2.32002 -2.90987 0.121747 2.32002 -2.90987 -1.77378 1.26576 -3.03241 -26.8085 2.51415 -8.25037 -54.212 40.8456 9.64829 13.6297 2.08493 -24.5171 -3.83 -0.404505 -0.892813 0 0 -1.59028e-015 1.59028e-015 3.18056e-015 -1.59028e-015 32.1082 5.35965 12.4225 34.3 -21.4001 -22.433 -20.4874 4.09417 93.2565 -28.7123 1.70004 -0.190736 6.36111e-015 1.59028e-015 -3.18055e-015 6.36111e-015 1.59028e-015 -3.18055e-015 -0.925335 4.67479 -3.258 
10.0523 94.5472 -7.41532 0.802033 -2.38732 -1.63287 0.0470855 1.01732 -1.42064 3.63028 -7.62445 10.4281 -1.3317 19.7578 -3.41469 -1.06663 -10.2205 4.54433 0.956817 -9.56714 0.883446 -9.66763 -7.88395 -2.02037 -2.56489 20.4863 6.17013 2.05253 -10.744 -6.71559 0.560405 -11.9433 0.283324 0.138085 2.03293 -2.84128 0.138085 2.03293 -2.84128 -1.72306 1.13282 -3.57739 -26.6295 2.35471 -7.67951 -54.1821 40.9146 9.29309 13.7732 2.47404 -24.3398 -3.98569 -0.452437 -0.713062 -3.18055e-015 0 2.38542e-015 -3.18055e-015 -3.18056e-015 3.18055e-015 31.6984 5.7914 13.0759 31.3545 -23.8653 -19.6488 -23.1766 3.38146 95.9349 -34.4375 2.87837 0.862924 -3.18055e-015 0 -6.36111e-015 0 0 -9.54166e-015 -0.90493 4.80318 -3.77495 
9.75342 94.4283 -7.48466 1.12961 -1.71236 0.82588 0.0274093 0.873407 -1.39236 3.44422 -8.86231 9.47876 -1.09276 20.2624 -4.48432 -1.15109 -10.1019 3.95257 0.992378 -9.52647 1.0008 -9.91003 -8.23977 -2.86637 -2.30362 21.6382 5.23863 1.62751 -11.6396 -7.5243 0.722956 -11.9585 0.223898 0.134634 1.74518 -2.783 0.134633 1.74518 -2.783 -1.18997 0.973621 -4.33028 -26.8543 2.13694 -7.05406 -53.7555 40.9051 8.58608 13.9304 2.52367 -24.7106 -3.86952 -0.421003 -0.781043 4.41391e-032 3.18055e-015 -7.95139e-016 1.59028e-015 3.18056e-015 -7.95139e-016 30.6394 6.44573 14.3627 28.1703 -28.2352 -16.1299 -26.2719 2.81403 97.8856 -39.2588 2.42951 -0.842178 -1.59028e-014 1.59028e-015 -0 -1.27222e-014 1.59028e-015 -3.18055e-015 -1.06534 4.83358 -4.30219 
